<?xml version="1.0" encoding="UTF-8" standalone="no"?>
<!DOCTYPE svg PUBLIC "-//W3C//DTD SVG 1.1//EN"
 "http://www.w3.org/Graphics/SVG/1.1/DTD/svg11.dtd">
<!-- Generated by graphviz version 2.38.0 (20140413.2041)
 -->
<!-- Title: xenomai_init Pages: 1 -->
<svg width="335pt" height="538pt"
 viewBox="0.00 0.00 334.64 538.00" xmlns="http://www.w3.org/2000/svg" xmlns:xlink="http://www.w3.org/1999/xlink">
<g id="graph0" class="graph" transform="scale(1 1) rotate(0) translate(4 534)">
<title>xenomai_init</title>
<polygon fill="white" stroke="none" points="-4,4 -4,-534 330.643,-534 330.643,4 -4,4"/>
<!-- persion -->
<g id="node1" class="node"><title>persion</title>
<ellipse fill="none" stroke="black" cx="36.3968" cy="-512" rx="36.2938" ry="18"/>
<text text-anchor="middle" x="36.3968" y="-508.3" font-family="Times,serif" font-size="14.00">persion</text>
</g>
<!-- text1 -->
<g id="node2" class="node"><title>text1</title>
<ellipse fill="none" stroke="black" cx="36.3968" cy="-439" rx="29.4969" ry="18"/>
<text text-anchor="middle" x="36.3968" y="-435.3" font-family="Times,serif" font-size="14.00">原文</text>
</g>
<!-- persion&#45;&gt;text1 -->
<g id="edge1" class="edge"><title>persion&#45;&gt;text1</title>
<path fill="none" stroke="black" d="M36.3968,-493.813C36.3968,-485.789 36.3968,-476.047 36.3968,-467.069"/>
<polygon fill="black" stroke="black" points="39.8969,-467.029 36.3968,-457.029 32.8969,-467.029 39.8969,-467.029"/>
</g>
<!-- hash1 -->
<g id="node3" class="node"><title>hash1</title>
<ellipse fill="none" stroke="black" cx="74.3968" cy="-192" rx="36.2938" ry="18"/>
<text text-anchor="middle" x="74.3968" y="-188.3" font-family="Times,serif" font-size="14.00">hash值</text>
</g>
<!-- text1&#45;&gt;hash1 -->
<g id="edge2" class="edge"><title>text1&#45;&gt;hash1</title>
<path fill="none" stroke="black" d="M33.3926,-421.034C28.3649,-389.069 20.208,-318.012 35.3968,-261 39.541,-245.444 48.1822,-229.746 56.2796,-217.357"/>
<polygon fill="black" stroke="black" points="59.2575,-219.203 62.0077,-208.971 53.4772,-215.255 59.2575,-219.203"/>
<text text-anchor="middle" x="39.8968" y="-318.8" font-family="Times,serif" font-size="14.00">hash</text>
</g>
<!-- text2 -->
<g id="node7" class="node"><title>text2</title>
<ellipse fill="none" stroke="black" cx="74.3968" cy="-366" rx="29.4969" ry="18"/>
<text text-anchor="middle" x="74.3968" y="-362.3" font-family="Times,serif" font-size="14.00">原文</text>
</g>
<!-- text1&#45;&gt;text2 -->
<g id="edge6" class="edge"><title>text1&#45;&gt;text2</title>
<path fill="none" stroke="black" d="M45.2102,-421.533C49.8625,-412.84 55.6715,-401.987 60.8794,-392.256"/>
<polygon fill="black" stroke="black" points="63.9981,-393.846 65.6311,-383.378 57.8264,-390.543 63.9981,-393.846"/>
</g>
<!-- sign1 -->
<g id="node6" class="node"><title>sign1</title>
<ellipse fill="none" stroke="black" cx="74.3968" cy="-105" rx="38.1938" ry="18"/>
<text text-anchor="middle" x="74.3968" y="-101.3" font-family="Times,serif" font-size="14.00">签名值</text>
</g>
<!-- hash1&#45;&gt;sign1 -->
<g id="edge5" class="edge"><title>hash1&#45;&gt;sign1</title>
<path fill="none" stroke="black" d="M74.3968,-173.799C74.3968,-162.163 74.3968,-146.548 74.3968,-133.237"/>
<polygon fill="black" stroke="black" points="77.8969,-133.175 74.3968,-123.175 70.8969,-133.175 77.8969,-133.175"/>
</g>
<!-- private_key -->
<g id="node4" class="node"><title>private_key</title>
<ellipse fill="none" stroke="black" cx="176.397" cy="-279" rx="51.9908" ry="18"/>
<text text-anchor="middle" x="176.397" y="-275.3" font-family="Times,serif" font-size="14.00">private_key</text>
</g>
<!-- private_key&#45;&gt;hash1 -->
<g id="edge3" class="edge"><title>private_key&#45;&gt;hash1</title>
<path fill="none" stroke="black" d="M157.211,-262.012C140.997,-248.5 117.639,-229.035 99.8611,-214.22"/>
<polygon fill="black" stroke="black" points="102.054,-211.492 92.131,-207.779 97.5726,-216.869 102.054,-211.492"/>
<text text-anchor="middle" x="145.897" y="-231.8" font-family="Times,serif" font-size="14.00">加密</text>
</g>
<!-- public_key1 -->
<g id="node5" class="node"><title>public_key1</title>
<ellipse fill="none" stroke="black" cx="176.397" cy="-192" rx="48.1917" ry="18"/>
<text text-anchor="middle" x="176.397" y="-188.3" font-family="Times,serif" font-size="14.00">公钥证书</text>
</g>
<!-- private_key&#45;&gt;public_key1 -->
<g id="edge4" class="edge"><title>private_key&#45;&gt;public_key1</title>
<path fill="none" stroke="black" d="M176.397,-260.799C176.397,-249.163 176.397,-233.548 176.397,-220.237"/>
<polygon fill="black" stroke="black" points="179.897,-220.175 176.397,-210.175 172.897,-220.175 179.897,-220.175"/>
<text text-anchor="middle" x="190.897" y="-231.8" font-family="Times,serif" font-size="14.00">生成</text>
</g>
<!-- public_key2 -->
<g id="node9" class="node"><title>public_key2</title>
<ellipse fill="none" stroke="black" cx="178.397" cy="-105" rx="48.1917" ry="18"/>
<text text-anchor="middle" x="178.397" y="-101.3" font-family="Times,serif" font-size="14.00">公钥证书</text>
</g>
<!-- public_key1&#45;&gt;public_key2 -->
<g id="edge8" class="edge"><title>public_key1&#45;&gt;public_key2</title>
<path fill="none" stroke="black" d="M176.802,-173.799C177.075,-162.163 177.443,-146.548 177.756,-133.237"/>
<polygon fill="black" stroke="black" points="181.256,-133.255 177.993,-123.175 174.258,-133.09 181.256,-133.255"/>
</g>
<!-- sign2 -->
<g id="node8" class="node"><title>sign2</title>
<ellipse fill="none" stroke="black" cx="134.397" cy="-18" rx="38.1938" ry="18"/>
<text text-anchor="middle" x="134.397" y="-14.3" font-family="Times,serif" font-size="14.00">签名值</text>
</g>
<!-- sign1&#45;&gt;sign2 -->
<g id="edge7" class="edge"><title>sign1&#45;&gt;sign2</title>
<path fill="none" stroke="black" d="M85.9654,-87.6111C94.7639,-75.1466 107.016,-57.7897 116.995,-43.6524"/>
<polygon fill="black" stroke="black" points="119.956,-45.5266 122.864,-35.3385 114.237,-41.4898 119.956,-45.5266"/>
</g>
<!-- hash2 -->
<g id="node11" class="node"><title>hash2</title>
<ellipse fill="none" stroke="black" cx="75.3968" cy="-279" rx="31.3957" ry="18"/>
<text text-anchor="middle" x="75.3968" y="-275.3" font-family="Times,serif" font-size="14.00">hash2</text>
</g>
<!-- text2&#45;&gt;hash2 -->
<g id="edge11" class="edge"><title>text2&#45;&gt;hash2</title>
<path fill="none" stroke="black" d="M74.5991,-347.799C74.736,-336.163 74.9197,-320.548 75.0763,-307.237"/>
<polygon fill="black" stroke="black" points="78.5767,-307.216 75.1947,-297.175 71.5772,-307.134 78.5767,-307.216"/>
</g>
<!-- public_key2&#45;&gt;sign2 -->
<g id="edge10" class="edge"><title>public_key2&#45;&gt;sign2</title>
<path fill="none" stroke="black" d="M169.704,-87.2067C163.436,-75.0991 154.861,-58.5329 147.731,-44.759"/>
<polygon fill="black" stroke="black" points="150.777,-43.0301 143.072,-35.7584 144.561,-46.2481 150.777,-43.0301"/>
<text text-anchor="middle" x="187.397" y="-57.8" font-family="Times,serif" font-size="14.00">公钥解密</text>
</g>
<!-- root_key -->
<g id="node10" class="node"><title>root_key</title>
<ellipse fill="none" stroke="black" cx="284.397" cy="-192" rx="42.4939" ry="18"/>
<text text-anchor="middle" x="284.397" y="-188.3" font-family="Times,serif" font-size="14.00">root_key</text>
</g>
<!-- root_key&#45;&gt;public_key2 -->
<g id="edge9" class="edge"><title>root_key&#45;&gt;public_key2</title>
<path fill="none" stroke="black" d="M265.446,-175.804C248.847,-162.493 224.52,-142.985 205.8,-127.974"/>
<polygon fill="black" stroke="black" points="207.892,-125.165 197.901,-121.64 203.512,-130.626 207.892,-125.165"/>
<text text-anchor="middle" x="251.897" y="-144.8" font-family="Times,serif" font-size="14.00">验证</text>
</g>
<!-- hash2&#45;&gt;hash1 -->
<g id="edge12" class="edge"><title>hash2&#45;&gt;hash1</title>
<path fill="none" stroke="black" d="M75.1944,-260.799C75.0575,-249.163 74.8738,-233.548 74.7172,-220.237"/>
<polygon fill="black" stroke="black" points="78.2163,-220.134 74.5988,-210.175 71.2168,-220.216 78.2163,-220.134"/>
</g>
</g>
</svg>
